<?xml version="1.0" encoding="UTF-8"?>
<svg id="Layer_1" data-name="Layer 1" xmlns="http://www.w3.org/2000/svg" viewBox="0 0 1920 560">
  <defs>
    <style>
      .cls-1 {
        fill: #fff;
      }
    </style>
  </defs>
  <path class="cls-1" d="M120.78,288.16c-3.71-.84-7.16-2.27-10.35-4.29-3.2-2.02-5.9-4.8-8.08-8.33l8.59-12.88c8.08-11.95,15.36-20.03,21.85-24.24,6.48-4.21,13.51-6.31,21.09-6.31s13.42,2.06,18.56,6.19c5.13,4.13,8.8,9.81,10.99,17.05,3.87-7.41,8.97-13.13,15.28-17.17,6.31-4.04,13.42-6.06,21.34-6.06,16.5,0,27.69,8.5,33.59,25.51,4.04-8.08,9.51-14.35,16.42-18.81,6.9-4.46,14.73-6.69,23.49-6.69,11.95,0,21.13,3.79,27.53,11.36,6.4,7.58,9.6,18.27,9.6,32.07v35.1c0,9.26,1.22,15.91,3.66,19.95,2.44,4.04,6.35,6.06,11.74,6.06,2.36,0,4.17,1.01,5.43,3.03,1.26,2.02,1.89,4.72,1.89,8.08,0,2.7-.72,5.14-2.15,7.32-1.43,2.19-3.75,3.28-6.95,3.28-24.41,0-36.62-14.98-36.62-44.95v-32.33c0-8.75-1.6-15.49-4.8-20.2-3.2-4.71-7.75-7.07-13.64-7.07-8.93,0-15.95,5.09-21.09,15.28-5.14,10.19-7.7,24.29-7.7,42.3v43.44c-1.68.51-3.54.92-5.56,1.26-2.02.34-3.96.51-5.81.51-4.04,0-7.92-.59-11.62-1.77v-70.21c0-9.93-1.73-17.55-5.18-22.86-3.45-5.3-8.55-7.96-15.28-7.96-6.06,0-11.41,2.4-16.04,7.2-4.63,4.8-8.25,11.53-10.86,20.2-2.61,8.67-3.91,18.73-3.91,30.18v43.44c-1.68.51-3.54.92-5.56,1.26-2.02.34-3.96.51-5.81.51-4.21,0-8-.59-11.36-1.77v-80.56c0-13.64-3.87-20.46-11.62-20.46-2.53,0-5.35,1.14-8.46,3.41-3.12,2.27-7.28,7.45-12.5,15.53l-10.1,15.41Z"/>
  <path class="cls-1" d="M346.05,336.65c3.54,0,7.32-1.09,11.36-3.28,4.04-2.19,7.83-5.56,11.36-10.1,4.88-6.73,8.29-14.65,10.23-23.74,1.93-9.09,2.9-17.93,2.9-26.52v-37.38c1.52-.51,3.28-.92,5.3-1.26,2.02-.34,4.12-.5,6.31-.5,3.87,0,7.66.59,11.36,1.77v58.34c0,14.48,2.31,25.09,6.95,31.82,4.63,6.74,12.08,10.1,22.35,10.1,24.07,0,36.11-16.5,36.11-49.5v-50.76c3.54-1.18,7.32-1.77,11.36-1.77s8.08.59,11.62,1.77v72.73c0,8.93,1.39,15.87,4.17,20.84,2.78,4.97,7.45,7.45,14.02,7.45,2.86,0,4.8,1.18,5.81,3.54,1.01,2.36,1.52,4.89,1.52,7.58s-.72,5.14-2.15,7.32c-1.43,2.19-3.75,3.28-6.95,3.28-16.5,0-27.53-7.41-33.08-22.22-9.6,14.82-24.16,22.22-43.69,22.22-21.72,0-36.54-9.09-44.45-27.28-2.7,4.89-5.73,9.01-9.09,12.38-4.55,4.55-9.81,8.17-15.78,10.86-5.98,2.69-12.42,4.04-19.32,4.04-2.36,0-4.17-1.14-5.43-3.41-1.26-2.27-1.89-4.75-1.89-7.45,0-2.86.72-5.39,2.15-7.58,1.43-2.19,3.75-3.28,6.94-3.28Z"/>
  <path class="cls-1" d="M509.7,358.37c-2.19,0-3.95-1.01-5.3-3.03-1.35-2.02-2.02-4.63-2.02-7.83,0-3.37.8-6.02,2.4-7.95,1.6-1.93,3.75-2.9,6.44-2.9,7.41,0,14.52-3.32,21.34-9.98,6.82-6.65,14.43-17.8,22.86-33.46v-135.11c0-16.83,3.58-29.8,10.73-38.89,7.15-9.09,17.55-13.55,31.19-13.38,12.46.17,22.18,4.89,29.17,14.14,6.98,9.26,10.48,21.3,10.48,36.11,0,11.96-2.19,25.25-6.57,39.9-4.38,14.65-10.19,28.71-17.43,42.18,1.68-.17,3.45-.25,5.3-.25,12.63,0,22.69,4.46,30.18,13.38,7.49,8.93,11.24,20.88,11.24,35.86v21.72c0,9.77,1.22,16.84,3.66,21.21,2.44,4.38,6.52,6.57,12.25,6.57,2.69,0,4.63,1.05,5.81,3.16,1.18,2.11,1.77,4.76,1.77,7.96s-.8,5.77-2.4,7.7c-1.6,1.93-3.83,2.9-6.69,2.9-12.12,0-21.43-3.91-27.91-11.74-6.48-7.83-9.72-18.9-9.72-33.21v-26.77c0-8.59-1.89-15.28-5.68-20.08-3.79-4.8-9.14-7.2-16.04-7.2s-12.8,2.23-18.18,6.69c-5.39,4.46-9.68,10.57-12.88,18.31-3.2,7.75-4.89,16.67-5.05,26.77v43.69c-1.68.51-3.54.92-5.56,1.26-2.02.34-3.96.51-5.81.51-3.87,0-7.83-.59-11.87-1.77v-20.71c-6.91,8.93-13.93,15.2-21.09,18.82-7.16,3.62-15.37,5.43-24.62,5.43ZM577.89,157.84v97.48c7.58-11.62,14.1-23.32,19.57-35.1,5.47-11.78,9.68-23.19,12.63-34.22,2.94-11.03,4.42-21.09,4.42-30.18s-1.56-16.62-4.67-21.59c-3.12-4.96-7.62-7.45-13.51-7.45-12.29,0-18.44,10.35-18.44,31.06Z"/>
  <path class="cls-1" d="M674.11,358.37c-2.19,0-3.95-1.01-5.3-3.03-1.35-2.02-2.02-4.63-2.02-7.83,0-7.24,3.03-10.86,9.09-10.86,5.39,0,11.36-3.32,17.93-9.98,6.57-6.65,14.23-17.38,22.98-32.2l27.02-45.71c-.34-2.36-.51-4.88-.51-7.58,0-8.42,1.55-14.65,4.67-18.69,3.11-4.04,5.68-6.48,7.7-7.32,2.86-.67,5.93-.63,9.22.13s6.27,1.98,8.97,3.66c2.69,1.68,4.55,3.71,5.56,6.06-.67,3.03-1.94,6.65-3.79,10.86-1.85,4.21-4.8,9.85-8.84,16.92,1.18,1.85,2.69,3.71,4.55,5.56,1.85,1.85,4.12,3.87,6.82,6.06l19.19,15.66c6.9,5.56,12.08,11.33,15.53,17.3,3.45,5.98,5.18,12.67,5.18,20.08,0,8.93-2.53,16.84-7.58,23.74.84,1.85,1.26,4.04,1.26,6.57,0,3.2-.8,5.77-2.4,7.7-1.6,1.93-3.83,2.9-6.69,2.9-2.7,0-5.3-.17-7.83-.51-2.53-.34-5.3-.76-8.33-1.26-4.55,1.18-9.34,1.77-14.39,1.77-5.9,0-11.79-.88-17.68-2.65-5.9-1.77-12.04-4.59-18.44-8.46-.34-8.92,3.03-15.49,10.1-19.7,9.26,6.06,18.01,9.09,26.27,9.09,7.07,0,12.71-1.89,16.92-5.68,4.21-3.79,6.31-8.63,6.31-14.52,0-7.41-4.04-14.31-12.12-20.71l-19.19-15.15c-3.37-2.69-6.4-5.47-9.09-8.33l-25.25,42.68c-9.26,15.66-18.14,26.81-26.64,33.46-8.5,6.65-18.23,9.98-29.17,9.98Z"/>
  <path class="cls-1" d="M803.16,358.37c-2.53,0-4.5-1.01-5.93-3.03-1.43-2.02-2.15-4.63-2.15-7.83,0-3.37.84-5.97,2.53-7.83,1.68-1.85,3.87-2.78,6.57-2.78,11.96,0,22.6-3.41,31.95-10.23,9.34-6.82,16.71-16.2,22.1-28.16,5.39-11.95,8.08-25.59,8.08-40.91v-21.97c1.52-.51,3.28-.92,5.3-1.26,2.02-.34,4.12-.5,6.31-.5,3.87,0,7.66.59,11.36,1.77v72.73c0,8.93,1.39,15.87,4.17,20.84,2.78,4.97,7.45,7.45,14.02,7.45,2.86,0,4.8,1.18,5.81,3.54,1.01,2.36,1.52,4.89,1.52,7.58s-.72,5.14-2.15,7.32c-1.43,2.19-3.75,3.28-6.94,3.28-20.88,0-33-11.78-36.37-35.36-7.41,11.11-16.79,19.79-28.16,26.01-11.37,6.23-24.03,9.34-38.01,9.34ZM878.16,199.26c-4.72,0-8.76-1.68-12.12-5.05-3.37-3.37-5.05-7.41-5.05-12.12,0-5.05,1.64-9.17,4.92-12.37,3.28-3.2,7.36-4.8,12.25-4.8s9.17,1.6,12.38,4.8c3.2,3.2,4.8,7.32,4.8,12.37s-1.64,8.97-4.92,12.25c-3.28,3.28-7.37,4.92-12.25,4.92Z"/>
  <path class="cls-1" d="M905.69,358.37c-2.19,0-3.95-1.01-5.3-3.03-1.35-2.02-2.02-4.63-2.02-7.83,0-7.24,3.03-10.86,9.09-10.86,5.39,0,10.23-2.73,14.52-8.21,4.29-5.47,8.04-14.6,11.24-27.4l7.58-29.55c7.07-26.26,20.54-39.4,40.41-39.4,7.58,0,13.97,2.23,19.19,6.69,5.22,4.46,8.84,10.48,10.86,18.06,4.71-7.91,10.77-14.02,18.18-18.31,7.41-4.29,15.66-6.44,24.75-6.44,13.13,0,23.27,4.29,30.43,12.88,7.15,8.59,10.73,20.63,10.73,36.11v29.55c0,9.26,1.22,15.91,3.66,19.95,2.44,4.04,6.35,6.06,11.74,6.06,1.85,0,3.87-.42,6.06-1.26,2.19-.84,4.46-2.1,6.82-3.79,2.86,1.35,5.22,3.66,7.07,6.94,1.85,3.28,2.69,6.53,2.53,9.72-2.7,3.03-6.15,5.47-10.35,7.32-4.21,1.85-8.76,2.78-13.64,2.78h-.25c-24.41,0-36.62-14.98-36.62-44.95v-32.33c0-18.18-7.16-27.28-21.47-27.28-7.41,0-13.93,2.95-19.57,8.84-5.64,5.9-10.02,14.06-13.13,24.5-3.12,10.44-4.67,22.56-4.67,36.37v31.32c-1.68.51-3.54.92-5.56,1.26-2.02.34-3.96.51-5.81.51-4.04,0-7.83-.59-11.36-1.77v-80.56c0-6.57-.84-11.62-2.53-15.15-1.68-3.54-4.72-5.3-9.09-5.3-3.54,0-6.57,1.6-9.09,4.8-2.53,3.2-4.72,8.33-6.57,15.41l-9.34,36.37c-4.38,16.67-10.44,28.83-18.18,36.49-7.75,7.66-17.85,11.49-30.31,11.49Z"/>
</svg>